<svg height="72" width="63" xmlns="http://www.w3.org/2000/svg"><g fill="none" fill-rule="evenodd" stroke="#000" stroke-width="2"><path d="M59.113 55.655L34.387 70.21a5.677 5.677 0 0 1-5.774 0L3.887 55.655C2.101 54.603 1 52.66 1 50.555V21.444c0-2.103 1.1-4.047 2.887-5.098L28.613 1.789a5.677 5.677 0 0 1 5.774 0l24.726 14.556C60.9 17.396 62 19.34 62 21.443v29.113c0 2.104-1.1 4.047-2.887 5.099z" fill="#fff" stroke-linecap="round"/><path d="M27.336 54h6.67V35.51h5.004l.99-5.778h-5.993v-4.187c0-1.35.865-2.767 2.1-2.767h3.406V17H35.34v.026c-6.532.24-7.873 4.057-7.99 8.068h-.013v4.638H24v5.777h3.336z"/></g></svg>