<svg height="72" width="65" xmlns="http://www.w3.org/2000/svg"><g fill="none" fill-rule="evenodd" stroke="#000" stroke-width="2"><path d="M61.018 55.655L35.481 70.21a6.029 6.029 0 0 1-5.963 0L3.982 55.655A5.874 5.874 0 0 1 1 50.555V21.444a5.873 5.873 0 0 1 2.982-5.098L29.518 1.789a6.029 6.029 0 0 1 5.963 0l25.537 14.556A5.873 5.873 0 0 1 64 21.443v29.113a5.874 5.874 0 0 1-2.982 5.099z" fill="#fff" stroke-linecap="round"/><path d="M46.813 48.75c0 .587-.477 1.062-1.063 1.062h-25.5a1.063 1.063 0 0 1-1.063-1.062V32.812h4.25c-.553.797-.74 2.284-.74 3.227 0 5.69 4.64 10.32 10.341 10.32 5.705 0 10.344-4.63 10.344-10.32 0-.943-.134-2.408-.82-3.227h4.25zM33.038 29.516c3.611 0 6.54 2.921 6.54 6.523 0 3.603-2.929 6.524-6.54 6.524-3.609 0-6.537-2.92-6.537-6.524 0-3.602 2.928-6.523 6.537-6.523zm7.4-5.203c0-.587.476-1.063 1.062-1.063h3.187c.586 0 1.063.476 1.063 1.063V27.5c0 .587-.477 1.063-1.063 1.063H41.5a1.063 1.063 0 0 1-1.063-1.063zM45.957 19H20.04A4.036 4.036 0 0 0 16 23.032v25.935A4.036 4.036 0 0 0 20.04 53h25.918A4.037 4.037 0 0 0 50 48.967V23.032A4.037 4.037 0 0 0 45.958 19z"/></g></svg>