<svg height="72" width="64" xmlns="http://www.w3.org/2000/svg"><g fill="none" fill-rule="evenodd" stroke="#000" stroke-width="2"><path d="M60.066 55.655L34.934 70.21a5.852 5.852 0 0 1-5.87 0L3.935 55.655A5.89 5.89 0 0 1 1 50.555V21.444a5.89 5.89 0 0 1 2.934-5.098L29.064 1.79a5.852 5.852 0 0 1 5.87 0l25.132 14.556A5.89 5.89 0 0 1 63 21.443v29.113a5.89 5.89 0 0 1-2.934 5.099z" fill="#fff" stroke-linecap="round"/><path d="M50.234 44.628c-5.214-.867-7.562-6.273-7.66-6.502l-.02-.045c-.267-.546-.328-.997-.184-1.34.284-.677 1.377-1.027 2.1-1.259.208-.066.406-.13.57-.195.71-.283 1.22-.591 1.555-.94.401-.417.479-.815.474-1.076-.012-.632-.49-1.193-1.252-1.468a2.227 2.227 0 0 0-.85-.164c-.202 0-.503.028-.788.162-.61.288-1.157.446-1.625.468a1.467 1.467 0 0 1-.538-.12l.046-.763.008-.113c.166-2.67.374-5.995-.498-7.968-.598-1.352-1.4-2.514-2.386-3.457a9.958 9.958 0 0 0-2.854-1.902A11.267 11.267 0 0 0 31.875 17h-.097l-.67.007c-.866 0-2.599.123-4.46.952a9.96 9.96 0 0 0-2.844 1.903c-.982.94-1.78 2.1-2.376 3.447-.87 1.971-.665 5.294-.498 7.963v.003l.054.876a1.52 1.52 0 0 1-.64.121c-.493 0-1.078-.158-1.738-.47a1.548 1.548 0 0 0-.661-.138c-.393 0-.809.117-1.168.33-.454.268-.746.648-.825 1.068-.051.278-.05.827.555 1.384.332.307.821.59 1.453.842.165.065.362.128.57.195.722.232 1.815.581 2.1 1.259.144.342.083.794-.184 1.34l-.021.045c-.066.157-.688 1.577-1.963 3.075a11.039 11.039 0 0 1-2.369 2.116 8.659 8.659 0 0 1-3.328 1.311.92.92 0 0 0-.764.961c.008.136.04.271.094.402l.002.002c.186.44.618.813 1.32 1.143.858.402 2.141.74 3.814 1.005.084.162.172.57.233.848.063.297.13.602.223.926.103.35.368.77 1.047.77.257 0 .553-.058.897-.125.501-.1 1.19-.235 2.046-.235.475 0 .968.041 1.463.125.955.16 1.78.747 2.733 1.428C27.267 52.874 28.847 54 31.26 54c.066 0 .131-.002.197-.007a5.8 5.8 0 0 0 .283.007c2.413 0 3.992-1.127 5.385-2.121l.003-.002c.954-.68 1.777-1.266 2.732-1.426a8.902 8.902 0 0 1 1.463-.125c.818 0 1.466.105 2.046.219.378.074.671.11.897.11l.022.001h.023c.496 0 .861-.275 1.001-.757.092-.317.159-.614.224-.916.056-.262.148-.681.232-.845 1.673-.265 2.956-.602 3.814-1.004.7-.328 1.132-.701 1.32-1.14.055-.13.089-.266.097-.405a.922.922 0 0 0-.765-.96z"/></g></svg>