<svg height="72" width="64" xmlns="http://www.w3.org/2000/svg"><g fill="none" fill-rule="evenodd" stroke="#000" stroke-width="2"><path d="M60.066 55.655L34.934 70.21a5.852 5.852 0 0 1-5.869 0L3.935 55.655A5.892 5.892 0 0 1 1 50.555V21.444a5.89 5.89 0 0 1 2.934-5.098L29.065 1.789a5.852 5.852 0 0 1 5.87 0l25.13 14.556A5.89 5.89 0 0 1 63 21.443v29.113a5.89 5.89 0 0 1-2.934 5.099z" fill="#fff" stroke-linecap="round"/><path d="M48.09 22.5a13.497 13.497 0 0 1-4.303 1.651A6.731 6.731 0 0 0 38.847 22c-3.737 0-6.769 3.052-6.769 6.816 0 .534.059 1.053.175 1.552-5.626-.284-10.615-2.995-13.956-7.124a6.847 6.847 0 0 0-.916 3.43 6.827 6.827 0 0 0 3.012 5.674 6.746 6.746 0 0 1-3.068-.85v.083c0 3.304 2.333 6.06 5.433 6.684a6.766 6.766 0 0 1-3.058.119c.862 2.706 3.36 4.678 6.323 4.73a13.522 13.522 0 0 1-8.408 2.92c-.546 0-1.087-.031-1.615-.094A19.097 19.097 0 0 0 26.377 49c12.455 0 19.265-10.384 19.265-19.392 0-.297-.007-.593-.018-.884A13.752 13.752 0 0 0 49 25.196a13.425 13.425 0 0 1-3.887 1.073 6.823 6.823 0 0 0 2.977-3.77z"/></g></svg>