<svg height="71" width="64" xmlns="http://www.w3.org/2000/svg"><g fill="none" fill-rule="evenodd" stroke="#000" stroke-width="2"><path d="M60.066 54.874L34.934 69.222a5.925 5.925 0 0 1-5.869 0L3.935 54.874A5.793 5.793 0 0 1 1 49.848V21.15a5.792 5.792 0 0 1 2.934-5.025L29.065 1.778a5.925 5.925 0 0 1 5.87 0l25.13 14.348A5.79 5.79 0 0 1 63 21.15v28.697a5.791 5.791 0 0 1-2.934 5.026z" fill="#fff" stroke-linecap="round"/><path d="M42.478 42.418c-.433 1.227-2.158 2.243-3.533 2.54-.94.2-2.168.36-6.305-1.355-5.288-2.19-8.696-7.566-8.96-7.915-.254-.35-2.138-2.847-2.138-5.429 0-2.582 1.312-3.841 1.841-4.38.434-.445 1.153-.646 1.841-.646.223 0 .423.01.604.02.528.022.793.054 1.142.89.434 1.047 1.492 3.63 1.618 3.894.127.264.254.625.074.973-.169.36-.318.52-.581.826-.265.307-.52.54-.784.868-.243.285-.518.593-.21 1.122.306.518 1.364 2.243 2.92 3.628 2.008 1.789 3.638 2.36 4.22 2.604.434.18.952.138 1.27-.2.401-.435.899-1.155 1.406-1.863.36-.508.815-.572 1.29-.392.487.17 3.06 1.439 3.587 1.703.529.266.879.392 1.005.614.127.223.127 1.27-.307 2.498zM32.005 17h-.01C22.072 17 14 25.074 14 35a17.87 17.87 0 0 0 3.427 10.55l-2.242 6.687 6.919-2.21A17.856 17.856 0 0 0 32.005 53C41.93 53 50 44.925 50 35c0-9.926-8.071-18-17.995-18z"/></g></svg>