<svg height="56" viewBox="0 0 38 56" width="38" xmlns="http://www.w3.org/2000/svg"><path d="m38.51 37.63c-1.17-5.58-6-4.92-6-4.92s0-.58 0-1.58.33-10.21-2.12-17.42-6.59-12.91-8-13.12-2.75.41-4.84 3.33c-3.4490887 4.54449093-6.0971191 9.6444012-7.83 15.08-1.23300797 4.1341063-1.71396705 8.4559639-1.42 12.76-2.42-.17-5.54 1.29-6.75 5.17-1.21 3.88-.62 8.25 2.29 12.88s5.79 4.21 6 3.92-1.71-3.42-1.46-6.21c.34719463-2.0176006 1.20818229-3.9117735 2.5-5.5 0 0 1.92 2.71 2.17 3 .4586334.2235935.9526624.3657114 1.46.42 0 0 .33 2 .38 2.21s1.92.38 1.92.38 1.13 6.63 1.13 7.13 3.13.46 3.67 0 1.19-7.16 1.19-7.16h3.54c.21 0 .13-2.12.13-2.12.5918776-.0048436 1.1804413-.0889241 1.75-.25.5747032-.9431426 1.0378118-1.9499005 1.38-3 0 0 .92.25 2.13 3.42s-.08 7.88.21 8.33 3.17.17 5-3 2.74-8.17 1.57-13.75zm-16.51-35.46c1.21.13 4.75 6.62 4.5 6.75-1.7262249-.4429166-3.5113591-.61164384-5.29-.5-1.6876338.05290192-3.3643527.29099602-5 .71.18-.21 4.55-7.13 5.79-6.96zm-14.66 42.71c-.68464301 1.8137094-.78602508 3.7959037-.29 5.67 0 0-2.5-1.46-3.83-7.17s.88-9.5 4.92-10.08c.11447295 1.5933331.40285394 3.1693688.86 4.7.71 2.29 1 3 1 3s-1.53.59-2.66 3.88zm9.17 2c-.12 0-.87.17-1-.08-.0425933-.4155782-.0425933-.8344218 0-1.25.21 0 .79-.21.88 0s.25 1.45.12 1.37zm3.83 6.71c-.25.17-.83.46-1 .13s-2.17-16.29-2-17.33c.12-.62 4.21-1.29 4.38-.79s-1.13 17.86-1.38 18.03zm5-6.62c-.7800156.0492924-1.5628019.0325661-2.34-.05 0-.12.25-1.37.25-1.37.7392131-.0462722 1.48131-.0026194 2.21.13.01.16-.03 1.32-.16 1.32zm4.75-10.12s-3.71-4.75-3.83-4.71-.54.33-.46.5 4.08 5 4 5.38c-.0846584.5704075-.2673519 1.1218713-.54 1.63-.17.08-3.62-4.54-3.79-4.54s-.42.46-.42.46c1.2959241 1.6302577 2.5075108 3.3258115 3.63 5.08-.08.25-.46 1-.46 1s-3.08-3.73-3.22-3.77-.58.5-.42.67c1.1928949 1.2620836 2.3050975 2.5980627 3.33 4-.08.21-.5 1.46-.5 1.46h-.62c-.597574-.9114051-1.2663277-1.7740974-2-2.58-.25 0-.54.42-.54.58s1.71 2 1.54 2.08-2.46.08-2.46.08.5-8.62.08-9.29c-.4433709-.8958802-1.4266723-1.3895709-2.41-1.21-1.6594384.2924355-3.271055.8105752-4.79 1.54-1 .54-.75 2.46-.62 3.21.3498546 1.8452094.6002161 3.7078994.75 5.58-.7209439.0831478-1.4490561.0831478-2.17 0-.17-.12-3.66-3.91-4.17-10.87-.36004507-5.8655336.5648226-11.7389552 2.71-17.21 1.46-3.62 2.17-5.12 2.17-5.12 2.1237696-.88814299 4.4083049-1.32734575 6.71-1.29 3.75.08 5.42.83 5.63 1.08 1.3807307 2.831418 2.3891103 5.8296668 3 8.92.2793854 1.5948284.419912 3.2108849.42 4.83 0 0-1.17-1.46-1.42-1.34s-.37.67-.37.67c.6246038.5261753 1.2095256 1.0977274 1.75 1.71 0 .21.13 2 .13 2s-2.12-2.71-2.37-2.58-.54.46-.42.63 2.71 2.92 2.83 3.21c.0597746.6085357.0597746 1.2214643 0 1.83 0 0-3.26-3.47-3.43-3.47s-.62.42-.29.63c1.3029767 1.2861931 2.5284648 2.6485886 3.67 4.08 0 .21-.12 2.25-.12 2.25s-3.5-4.12-3.67-4.08-.42.42-.33.58 3.88 4.13 3.88 4.5c-.1057232.6478466-.2493024 1.2889445-.43 1.92zm7.17 7c-.7787175-.5746794-1.6168477-1.0641474-2.5-1.46-.12.17-.12.75.13.88.7984383.4712573 1.5257327 1.0537662 2.16 1.73.0199268.6423412-.020248 1.2851387-.12 1.92l-.08.38s-1.75-1.25-2-1.17-.5.42-.25.67 2 1.38 1.88 1.63c-.3118681.9031692-.7938906 1.7382222-1.42 2.46-.4599949.430624-.9784359.7942061-1.54 1.08 0 0 .88-5.67-.62-8.17s-2.37-2.67-2.37-2.67c.4909132-1.2818185.9082586-2.5906139 1.25-3.92.58-2.25.79-2.92.79-2.92 1.0902781.2587517 2.1307487.6945332 3.08 1.29 1 .71 1.54 5.13 1.54 5.13s-2.64-1.71-2.76-1.71-.37.79-.12.92c.9989828.5016288 1.9613674 1.0730446 2.88 1.71.0498969.7622891.0599105 1.5266654.03 2.29zm-32.58-6.39c-.28894003.699188-.41544991 1.4548281-.37 2.21.08.17.63.13.83 0s0-1 .42-1.67c.33036294-.4093249.76097175-.726253 1.25-.92l-.37-.83c-.75691142.0705321-1.42310254.5285385-1.76 1.21zm21.71-18.37c-.37-4.87-4.06-6.19-6.33-5.37-5.25 1.88-5.33 7.71-2.12 10.67s8.82-.39 8.45-5.3zm-1.83 1.5c-.5752482-1.1624062-1.2441216-2.2760804-2-3.33-.25 0-.79.33-.67.5.8324402 1.2363827 1.5711705 2.533339 2.21 3.88-.5823825 1.4697546-2.2054068 2.2353321-3.71 1.75-2.58-.75-3.62-4.08-3-5.87.5505493-1.5401218 2.0248115-2.5551876 3.66-2.52 1.538208-.0663461 2.8976186.9923848 3.21 2.5.2044021 1.0170328.3016001 2.0526951.29 3.09zm-4.56-3.5c.0009269-.1421-.0668311-.2758998-.1819263-.3592446-.1150953-.0833448-.2633568-.105973-.3980737-.0607554-.4876953.1033276-.9192205.3850672-1.21.79-.2710917.5563337-.3983067 1.1717795-.37 1.79 0 .25.79.33 1.13.21s.13-.29.13-.87.83-1.25.9-1.5zm.54 1.58c.3890977 1.0666188.9205753 2.0757534 1.58 3 .25.17.42-.08.67-.37s-1.17-2.54-1.42-2.83-.86.02-.86.2zm-.49 1.33c-.2901873.1405793-.5358931.3585999-.71.63.2203979.5090351.5322147.9733711.92 1.37.21.17.67 0 .79-.17s-.75-1.96-1-1.83zm.73-8.28c.0859486-.1595213.0768459-.3534528-.0236669-.5042221-.1005128-.1507692-.2760256-.2337607-.4563331-.2157779-.179771.009408-.3430326.1077801-.4353553.2623202-.0923226.1545401-.1015646.344924-.0246447.5076798.1189552.1468061.3029298.2251225.4912.2090995.1882701-.016023.3563642-.1243026.4488-.2890995zm2.81.08c.0859486-.1595213.0768459-.3534528-.0236669-.5042221-.1005128-.1507692-.2760256-.2337607-.4563331-.2157779-.179771.009408-.3430326.1077801-.4353553.2623202-.0923226.1545401-.1015646.344924-.0246447.5076798.118457.15127.3051509.2326844.4966052.2165619s.3619037-.127612.4533948-.2965619zm2.41 1.66c.0859486-.1595213.0768459-.3534528-.0236669-.5042221-.1005128-.1507692-.2760256-.2337607-.4563331-.2157779-.179771.009408-.3430326.1077801-.4353553.2623202-.0923226.1545401-.1015646.344924-.0246447.5076798.1143233.1496233.295164.2331312.4831984.2231294.1880343-.0100018.3589959-.1122226.4568016-.2731294zm1.56 2.75c.0859486-.1595213.0768459-.3534528-.0236669-.5042221-.1005128-.1507692-.2760256-.2337607-.4563331-.2157779-.179771.009408-.3430326.1077801-.4353553.2623202-.0923226.1545401-.1015646.344924-.0246447.5076798.1130699.1585363.2992478.2483812.4937111.2382529s.3703003-.1188282.4662889-.2882529zm-.4 3.11c.1062996.154922.2821159.2475097.47.2475097s.3637004-.0925877.47-.2475097c.0859486-.1595213.0768459-.3534528-.0236669-.5042221-.1005128-.1507692-.2760256-.2337607-.4563331-.2157779-.1628818.0205506-.3075689.1140837-.393177.2541696-.085608.140086-.1028387.3115091-.046823.4658304zm.38 2.09c-.179771.009408-.3430326.1077801-.4353553.2623202-.0923226.1545401-.1015646.344924-.0246447.5076798.1062996.154922.2821159.2475097.47.2475097s.3637004-.0925877.47-.2475097c.1124999-.1583835.1208053-.3682732.0211719-.5350507-.0996334-.1667776-.2883875-.2589435-.4811719-.2349493zm-1.65 3.29c-.179771.009408-.3430326.1077801-.4353553.2623202-.0923226.1545401-.1015646.344924-.0246447.5076798.1062996.154922.2821159.2475097.47.2475097s.3637004-.0925877.47-.2475097c.1166547-.1613749.1240514-.3772964.0187135-.546276-.1053379-.1689795-.3024599-.2574089-.4987135-.223724zm-3.06 1.4c-.179771.009408-.3430326.1077801-.4353553.2623202-.0923226.1545401-.1015646.344924-.0246447.5076798.1062996.154922.2821159.2475097.47.2475097s.3637004-.0925877.47-.2475097c.1239289-.1612259.1353973-.3822415.0288209-.5554282-.1065765-.1731868-.3090461-.2625482-.5088209-.2245718zm-4.06.19c-.179771.009408-.3430326.1077801-.4353553.2623202-.0923226.1545401-.1015646.344924-.0246447.5076798.1062996.154922.2821159.2475097.47.2475097s.3637004-.0925877.47-.2475097c.1266312-.1626408.1379388-.387141.0282909-.5616827-.109648-.1745417-.3168049-.2618015-.5182909-.2183173zm-3.1-2.19c-.179771.009408-.3430326.1077801-.4353553.2623202-.0923226.1545401-.1015646.344924-.0246447.5076798.1062996.154922.2821159.2475097.47.2475097s.3637004-.0925877.47-.2475097c.1266312-.1626408.1379388-.387141.0282909-.5616827-.109648-.1745417-.3168049-.2618015-.5182909-.2183173zm-1.67-3.26c-.179771.009408-.3430326.1077801-.4353553.2623202-.0923226.1545401-.1015646.344924-.0246447.5076798.1062996.154922.2821159.2475097.47.2475097s.3637004-.0925877.47-.2475097c.1166547-.1613749.1240514-.3772964.0187135-.546276-.1053379-.1689795-.3024599-.2574089-.4987135-.223724zm.15-4c-.179771.009408-.3430326.1077801-.4353553.2623202-.0923226.1545401-.1015646.344924-.0246447.5076798.1062996.154922.2821159.2475097.47.2475097s.3637004-.0925877.47-.2475097c.1242791-.1567058.1408441-.3732155.0418508-.5470036-.0989932-.1737882-.2936729-.2699687-.4918508-.2429964zm2.23-2.43c.0859486-.1595213.0768459-.3534528-.0236669-.5042221-.1005128-.1507692-.2760256-.2337607-.4563331-.2157779-.179771.009408-.3430326.1077801-.4353553.2623202-.0923226.1545401-.1015646.344924-.0246447.5076798.1138754.1623018.3039076.2537702.5017957.2415297.197888-.0122405.375199-.1264311.4682043-.3015297zm2.21-1.73c.0859486-.1595213.0768459-.3534528-.0236669-.5042221-.1005128-.1507692-.2760256-.2337607-.4563331-.2157779-.179771.009408-.3430326.1077801-.4353553.2623202-.0923226.1545401-.1015646.344924-.0246447.5076798.1138754.1623018.3039076.2537702.5017957.2415297.197888-.0122405.375199-.1264311.4682043-.3015297z" fill="#fff" transform="translate(-1)"/></svg>