<svg height="27" viewBox="0 0 128 27" width="128" xmlns="http://www.w3.org/2000/svg" xmlns:xlink="http://www.w3.org/1999/xlink"><linearGradient id="a" x1="45.791%" x2="109.47%" y1="51.69%" y2="49.146%"><stop offset="0" stop-color="#6f4e37"/><stop offset="1" stop-color="#bd6827"/></linearGradient><g fill="none" fill-rule="evenodd" transform="translate(-2.317 -5)"><path d="m120.017135 25.05c2.761423 0 5-3.8055796 5-8.5" stroke="#bd6827"/><text fill="url(#a)" font-family="Milkshake" font-size="25" letter-spacing="1.2"><tspan x="11.405" y="26">coffe Lov</tspan> <tspan x="114.305" y="26">e</tspan></text><path d="m121.580035 12.3887717c-.36424-.408431-.589216-.9731081-.589216-1.5967577 0-1.24827253.901321-2.26019751 2.013158-2.26019751.748307 0 1.401252.45837868 1.748226 1.13868749h.529863c.346974-.68030881.9999-1.13868749 1.748227-1.13868749 1.111831 0 2.013157 1.01192498 2.013157 2.26019751 0 .6236496-.225 1.1883267-.589215 1.5967577l-3.4371 3.858875zm7.208715.3774796c.450048-.5052738.728385-1.203276.728385-1.9742426 0-1.54198122-1.113395-2.7920087-2.486842-2.7920087-.827811 0-1.561122.45409229-2.013158 1.1525199-.452037-.69842761-1.185357-1.1525199-2.013158-1.1525199-1.373448 0-2.486842 1.25002748-2.486842 2.7920087 0 .7709666.278351 1.4689688.728379 1.9742426l3.771621 4.2337487z" stroke="#bd6827" stroke-width=".5"/><g stroke="#6f4e37"><g transform="matrix(-.64278761 -.76604444 -.76604444 .64278761 12.333195 14.521378)"><path d="m8.99308077-.49991767c.0019895-.00002568.0019895-.00002568.0052422-.0000527.31636505-.00222852.74045755.04794871 1.17295483.2056441.8048467.29345984 1.3287222.88100047 1.3287222 1.78050372 0 .76642624-.5086871 1.30417062-1.2922866 1.66204084-.42413001.19370037-.83927745.30021054-1.13040943.34576966l-.57730397.09034206v-4.07742355z"/><path d="m8.47991534-.04309721c.00281938.03258781.00667232.08918537.01040419.16737279.04357513.91295623-.03324098 1.98149447-.33145964 3.01441653-.59760899 2.06990231-1.93960366 3.36130789-4.16074557 3.36130789-2.20832694 0-3.54652291-1.29113263-4.14856575-3.36031402-.30242071-1.03939996-.38207569-2.11333503-.34109965-3.0251667.00326085-.07256303.00663137-.12503716.00910479-.15527822l.03756137-.45924106h8.88527068z"/></g><path d="m12.3334652 13.3854134s1.5499802-.25166 3.3945372.9675897c.3843602.2540616.8417693.9818066 1.3722272 2.1832351" stroke-linecap="round"/><path d="m11.5171347 12.0203186s1.62582-.2379905 3.5606303.9150331c.4031668.2402618.8829567.9284779 1.4393697 2.0646483" stroke-linecap="round"/><path d="m11.6461908 12.7109938 2.9634973.5013912"/></g></g></svg>