<svg height="27" viewBox="0 0 148 27" width="148" xmlns="http://www.w3.org/2000/svg"><path d="m847.195122 0h147v27h-147zm29.116805 11.63c.288 0 .504-.216.504-.504 0 0 0 0 0-.018 0-.144-.018-1.962-1.332-3.312-.9-.9-2.178-1.368-3.78-1.368-1.188 0-2.178.252-2.952.756-.666.468-1.206 1.098-1.584 1.926-.612 1.404-.612 3.042-.612 4.14 0 1.026 0 2.718.63 4.14.396.828.918 1.458 1.584 1.926.774.504 1.764.756 2.934.756 2.646 0 3.888-1.296 4.482-2.376.63-1.17.63-2.322.63-2.376 0-.288-.216-.504-.504-.504s-.54.216-.54.504c0 .018 0 .936-.504 1.872-.648 1.224-1.854 1.836-3.564 1.836-1.782 0-2.952-.666-3.564-2.052-.54-1.242-.54-2.772-.54-3.726 0-2.808.306-5.778 4.104-5.778 1.314 0 2.322.342 3.024 1.062.432.414.756.99.918 1.674.126.522.126.9.126.9 0 .306.252.522.54.522zm8.414 8.424c1.692 0 2.988-.576 3.852-1.71.468-.576.81-1.314 1.026-2.142.198-.846.306-1.836.306-2.952 0-2.304-.396-3.96-1.206-5.076-.45-.576-1.008-1.026-1.692-1.296-.63-.306-1.404-.432-2.286-.432s-1.638.108-2.268.36c-.684.27-1.242.666-1.692 1.224-.45.54-.756 1.26-.954 2.142-.198.864-.306 1.854-.306 3.078 0 2.412.45 4.122 1.368 5.22.846 1.062 2.106 1.584 3.852 1.584zm0-12.564c1.476 0 2.502.432 3.168 1.332.666.936.99 2.376.99 4.428 0 1.98-.378 3.474-1.08 4.428-.684.9-1.692 1.332-3.078 1.332-1.422 0-2.448-.378-3.096-1.188-.72-.936-1.098-2.412-1.098-4.572 0-2.178.342-3.672 1.026-4.572.63-.81 1.638-1.188 3.168-1.188zm16.892 12.51c.054 0 .108-.018.162-.018.216-.072.36-.27.36-.504v-12.456c0-.288-.234-.522-.522-.522-.27 0-.504.234-.504.522v10.8l-2.7-3.924c-.144-.252-.486-.306-.702-.126-.234.144-.288.468-.144.702l3.636 5.292c.09.162.252.234.414.234zm-8.532 0c.288 0 .504-.234.504-.522v-10.8l2.736 3.96c.162.252.486.306.72.144.216-.162.27-.486.126-.72l-3.672-5.328c-.108-.198-.36-.27-.576-.216-.216.072-.36.27-.36.504v12.456c0 .288.234.522.522.522zm20.528-12.474c.288 0 .522-.234.522-.504 0-.288-.234-.522-.522-.522h-8.532c-.288 0-.522.234-.522.522 0 .27.234.504.522.504zm-4.284 12.474c.288 0 .522-.234.522-.522v-10.674c0-.27-.234-.504-.522-.504-.306 0-.522.234-.522.504v10.674c0 .288.216.522.522.522zm18.422-.72-5.112-12.474c-.072-.18-.252-.306-.468-.306-.198 0-.396.126-.468.306l-5.166 12.474c-.108.27.018.576.288.684.072.036.126.036.198.036.198 0 .378-.126.486-.306l4.662-11.322 4.626 11.322c.108.252.414.378.666.27.27-.108.396-.414.288-.684zm-3.762-2.916c.288 0 .522-.234.522-.522s-.234-.522-.522-.522h-3.672c-.288 0-.522.234-.522.522s.234.522.522.522zm15.182-4.734c.288 0 .504-.216.504-.504 0 0 0 0 0-.018 0-.144-.018-1.962-1.332-3.312-.9-.9-2.178-1.368-3.78-1.368-1.188 0-2.178.252-2.952.756-.666.468-1.206 1.098-1.584 1.926-.612 1.404-.612 3.042-.612 4.14 0 1.026 0 2.718.63 4.14.396.828.918 1.458 1.584 1.926.774.504 1.764.756 2.934.756 2.646 0 3.888-1.296 4.482-2.376.63-1.17.63-2.322.63-2.376 0-.288-.216-.504-.504-.504s-.54.216-.54.504c0 .018 0 .936-.504 1.872-.648 1.224-1.854 1.836-3.564 1.836-1.782 0-2.952-.666-3.564-2.052-.54-1.242-.54-2.772-.54-3.726 0-2.808.306-5.778 4.104-5.778 1.314 0 2.322.342 3.024 1.062.432.414.756.99.918 1.674.126.522.126.9.126.9 0 .306.252.522.54.522zm12.284-4.104c.288 0 .522-.234.522-.504 0-.288-.234-.522-.522-.522h-8.532c-.288 0-.522.234-.522.522 0 .27.234.504.522.504zm-4.284 12.474c.288 0 .522-.234.522-.522v-10.674c0-.27-.234-.504-.522-.504-.306 0-.522.234-.522.504v10.674c0 .288.216.522.522.522zm16.774.054c.99 0 1.854-.252 2.574-.756.558-.378.99-.936 1.314-1.62.54-1.152.54-2.268.54-2.322v-8.334c0-.306-.234-.522-.522-.522s-.504.216-.504.522v8.334c0 .018-.018.936-.432 1.872-.558 1.188-1.584 1.782-2.97 1.782-1.404 0-2.412-.576-2.952-1.746-.432-.918-.468-1.854-.468-1.89v-8.352c0-.306-.216-.522-.486-.522-.306 0-.522.216-.522.522v8.352c0 .09.018 2.142 1.35 3.528.756.756 1.818 1.152 3.078 1.152zm14.552-9.972v-.018c0-.162-.054-.972-.504-1.8-.468-.828-1.44-1.818-3.438-1.818-.864 0-1.62.18-2.196.468-.522.288-.936.666-1.224 1.152-.234.378-.36.792-.45 1.242-.054.36-.054.648-.054.774 0 .27 0 1.044.396 1.818.216.468.54.846.954 1.152.468.36 1.062.576 1.782.648.018.018.054.018.072.018.252 0 .468-.198.504-.45.036-.27-.162-.54-.432-.576-1.854-.234-2.232-1.548-2.232-2.61 0-1.17.504-2.61 2.88-2.61 1.188 0 2.052.45 2.52 1.278.378.648.378 1.332.396 1.35h-.018.018c0 .288.234.504.522.504.27 0 .504-.234.504-.522zm-.342 4.644c-.198-.468-.504-.864-.882-1.152-.432-.378-.99-.63-1.62-.738-.306-.054-.558.108-.612.396-.072.288.108.558.396.612 1.35.252 2.016 1.17 2.016 2.7 0 1.656-.936 2.484-2.88 2.484-1.224 0-2.052-.396-2.538-1.224-.36-.612-.36-1.242-.36-1.26 0-.288-.252-.54-.522-.54-.288 0-.522.252-.522.54 0 .036.018.9.504 1.764.45.792 1.422 1.746 3.438 1.746.864 0 1.62-.162 2.178-.432.522-.27.954-.612 1.26-1.098.486-.81.486-1.656.486-1.98 0-.288 0-1.044-.342-1.818z" fill-rule="evenodd" transform="translate(-847)"/></svg>