<svg height="42" viewBox="0 0 386 42" width="386" xmlns="http://www.w3.org/2000/svg"><path d="m319 190h385.729757v41.940615h-385.729757zm94.381028 19.307388c.64 0 1.12-.48 1.12-1.12 0 0 0 0 0-.04 0-.32-.04-4.36-2.96-7.36-2-2-4.84-3.04-8.4-3.04-2.64 0-4.84.56-6.56 1.68-1.48 1.04-2.68 2.44-3.52 4.28-1.36 3.12-1.36 6.76-1.36 9.2 0 2.28 0 6.04 1.4 9.2.88 1.84 2.04 3.24 3.52 4.28 1.72 1.12 3.92 1.68 6.52 1.68 5.88 0 8.64-2.88 9.96-5.28 1.4-2.6 1.4-5.16 1.4-5.28 0-.64-.48-1.12-1.12-1.12s-1.2.48-1.2 1.12c0 .04 0 2.08-1.12 4.16-1.44 2.72-4.12 4.08-7.92 4.08-3.96 0-6.56-1.48-7.92-4.56-1.2-2.76-1.2-6.16-1.2-8.28 0-6.24.68-12.84 9.12-12.84 2.92 0 5.16.76 6.72 2.36.96.92 1.68 2.2 2.04 3.72.28 1.16.28 2 .28 2 0 .68.56 1.16 1.2 1.16zm18.44 18.72c3.76 0 6.64-1.28 8.56-3.8 1.04-1.28 1.8-2.92 2.28-4.76.44-1.88.68-4.08.68-6.56 0-5.12-.88-8.8-2.68-11.28-1-1.28-2.24-2.28-3.76-2.88-1.4-.68-3.12-.96-5.08-.96s-3.64.24-5.04.8c-1.52.6-2.76 1.48-3.76 2.72-1 1.2-1.68 2.8-2.12 4.76-.44 1.92-.68 4.12-.68 6.84 0 5.36 1 9.16 3.04 11.6 1.88 2.36 4.68 3.52 8.56 3.52zm0-27.92c3.28 0 5.56.96 7.04 2.96 1.48 2.08 2.2 5.28 2.2 9.84 0 4.4-.84 7.72-2.4 9.84-1.52 2-3.76 2.96-6.84 2.96-3.16 0-5.44-.84-6.88-2.64-1.6-2.08-2.44-5.36-2.44-10.16 0-4.84.76-8.16 2.28-10.16 1.4-1.8 3.64-2.64 7.04-2.64zm37.28 27.8c.12 0 .24-.04.36-.04.48-.16.8-.6.8-1.12v-27.68c0-.64-.52-1.16-1.16-1.16-.6 0-1.12.52-1.12 1.16v24l-6-8.72c-.32-.56-1.08-.68-1.56-.28-.52.32-.64 1.04-.32 1.56l8.08 11.76c.2.36.56.52.92.52zm-18.96 0c.64 0 1.12-.52 1.12-1.16v-24l6.08 8.8c.36.56 1.08.68 1.6.32.48-.36.6-1.08.28-1.6l-8.16-11.84c-.24-.44-.8-.6-1.28-.48-.48.16-.8.6-.8 1.12v27.68c0 .64.52 1.16 1.16 1.16zm45.36-27.72c.64 0 1.16-.52 1.16-1.12 0-.64-.52-1.16-1.16-1.16h-18.96c-.64 0-1.16.52-1.16 1.16 0 .6.52 1.12 1.16 1.12zm-9.52 27.72c.64 0 1.16-.52 1.16-1.16v-23.72c0-.6-.52-1.12-1.16-1.12-.68 0-1.16.52-1.16 1.12v23.72c0 .64.48 1.16 1.16 1.16zm40.68-1.6-11.36-27.72c-.16-.4-.56-.68-1.04-.68-.44 0-.88.28-1.04.68l-11.48 27.72c-.24.6.04 1.28.64 1.52.16.08.28.08.44.08.44 0 .84-.28 1.08-.68l10.36-25.16 10.28 25.16c.24.56.92.84 1.48.6.6-.24.88-.92.64-1.52zm-8.36-6.48c.64 0 1.16-.52 1.16-1.16s-.52-1.16-1.16-1.16h-8.16c-.64 0-1.16.52-1.16 1.16s.52 1.16 1.16 1.16zm33.48-10.52c.64 0 1.12-.48 1.12-1.12 0 0 0 0 0-.04 0-.32-.04-4.36-2.96-7.36-2-2-4.84-3.04-8.4-3.04-2.64 0-4.84.56-6.56 1.68-1.48 1.04-2.68 2.44-3.52 4.28-1.36 3.12-1.36 6.76-1.36 9.2 0 2.28 0 6.04 1.4 9.2.88 1.84 2.04 3.24 3.52 4.28 1.72 1.12 3.92 1.68 6.52 1.68 5.88 0 8.64-2.88 9.96-5.28 1.4-2.6 1.4-5.16 1.4-5.28 0-.64-.48-1.12-1.12-1.12s-1.2.48-1.2 1.12c0 .04 0 2.08-1.12 4.16-1.44 2.72-4.12 4.08-7.92 4.08-3.96 0-6.56-1.48-7.92-4.56-1.2-2.76-1.2-6.16-1.2-8.28 0-6.24.68-12.84 9.12-12.84 2.92 0 5.16.76 6.72 2.36.96.92 1.68 2.2 2.04 3.72.28 1.16.28 2 .28 2 0 .68.56 1.16 1.2 1.16zm27.04-9.12c.64 0 1.16-.52 1.16-1.12 0-.64-.52-1.16-1.16-1.16h-18.96c-.64 0-1.16.52-1.16 1.16 0 .6.52 1.12 1.16 1.12zm-9.52 27.72c.64 0 1.16-.52 1.16-1.16v-23.72c0-.6-.52-1.12-1.16-1.12-.68 0-1.16.52-1.16 1.12v23.72c0 .64.48 1.16 1.16 1.16zm36.76.12c2.2 0 4.12-.56 5.72-1.68 1.24-.84 2.2-2.08 2.92-3.6 1.2-2.56 1.2-5.04 1.2-5.16v-18.52c0-.68-.52-1.16-1.16-1.16s-1.12.48-1.12 1.16v18.52c0 .04-.04 2.08-.96 4.16-1.24 2.64-3.52 3.96-6.6 3.96-3.12 0-5.36-1.28-6.56-3.88-.96-2.04-1.04-4.12-1.04-4.2v-18.56c0-.68-.48-1.16-1.08-1.16-.68 0-1.16.48-1.16 1.16v18.56c0 .2.04 4.76 3 7.84 1.68 1.68 4.04 2.56 6.84 2.56zm32.08-22.16v-.04c0-.36-.12-2.16-1.12-4-1.04-1.84-3.2-4.04-7.64-4.04-1.92 0-3.6.4-4.88 1.04-1.16.64-2.08 1.48-2.72 2.56-.52.84-.8 1.76-1 2.76-.12.8-.12 1.44-.12 1.72 0 .6 0 2.32.88 4.04.48 1.04 1.2 1.88 2.12 2.56 1.04.8 2.36 1.28 3.96 1.44.04.04.12.04.16.04.56 0 1.04-.44 1.12-1 .08-.6-.36-1.2-.96-1.28-4.12-.52-4.96-3.44-4.96-5.8 0-2.6 1.12-5.8 6.4-5.8 2.64 0 4.56 1 5.6 2.84.84 1.44.84 2.96.88 3h-.04.04c0 .64.52 1.12 1.16 1.12.6 0 1.12-.52 1.12-1.16zm-.76 10.32c-.44-1.04-1.12-1.92-1.96-2.56-.96-.84-2.2-1.4-3.6-1.64-.68-.12-1.24.24-1.36.88-.16.64.24 1.24.88 1.36 3 .56 4.48 2.6 4.48 6 0 3.68-2.08 5.52-6.4 5.52-2.72 0-4.56-.88-5.64-2.72-.8-1.36-.8-2.76-.8-2.8 0-.64-.56-1.2-1.16-1.2-.64 0-1.16.56-1.16 1.2 0 .08.04 2 1.12 3.92 1 1.76 3.16 3.88 7.64 3.88 1.92 0 3.6-.36 4.84-.96 1.16-.6 2.12-1.36 2.8-2.44 1.08-1.8 1.08-3.68 1.08-4.4 0-.64 0-2.32-.76-4.04z" fill="#fff" fill-rule="evenodd" transform="translate(-319 -190)"/></svg>