<svg height="72" viewBox="0 0 63 72" width="63" xmlns="http://www.w3.org/2000/svg"><g fill="none" fill-rule="evenodd" stroke="#000" stroke-width="2" transform="translate(1 1)"><path d="m58.1129044 54.65455-24.7260494 14.5564909c-1.786631 1.0519455-3.9875602 1.0519455-5.7741912 0l-24.72556817-14.5564909c-1.78614983-1.0519454-2.88709563-2.9949042-2.88709563-5.0987951v-29.1124911c0-2.1034002 1.1009458-4.0468497 2.88709563-5.0983045l24.72556817-14.55600024c1.786631-1.05194541 3.9875602-1.05194541 5.7741912 0l24.7260494 14.55600024c1.786631 1.0514548 2.8870956 2.9949043 2.8870956 5.0983045v29.1124911c0 2.1038909-1.1004646 4.0468497-2.8870956 5.0987951z" fill="#fff" stroke-linecap="round"/><path d="m26.3363294 53h6.6702296v-18.4906833h5.0037653l.9896757-5.7773272h-5.993441v-4.1871157c0-1.3494487.8652982-2.7670563 2.1008138-2.7670563h3.4058059v-5.7778175h-4.17442v.026479c-6.5317625.2388014-7.8731933 4.056682-7.9902831 8.0677614h-.0121462v4.6377491h-3.3363294v5.7773272h3.3363294z"/></g></svg>