<svg height="72" viewBox="0 0 65 72" width="65" xmlns="http://www.w3.org/2000/svg"><g fill="none" fill-rule="evenodd" stroke="#000" stroke-width="2" transform="translate(1 1)"><path d="m60.0182455 54.65455-25.5372364 14.5564909c-1.8452091 1.0519455-4.1183 1.0519455-5.963509 0l-25.5357456-14.5564909c-1.84520908-1.0519454-2.9817545-2.9949042-2.9817545-5.0987951v-29.1124911c0-2.1034002 1.13654542-4.0468497 2.9817545-5.0983045l25.5357456-14.55600024c1.845209-1.05194541 4.1182999-1.05194541 5.963509 0l25.5372364 14.55600024c1.8452091 1.0514548 2.9817545 2.9949043 2.9817545 5.0983045v29.1124911c0 2.1038909-1.1365454 4.0468497-2.9817545 5.0987951z" fill="#fff" stroke-linecap="round"/><path d="m45.8127639 47.7497516c0 .5871662-.4763964 1.0625621-1.0625776 1.0625621h-25.5008694c-.5856844 0-1.0620808-.4753959-1.0620808-1.0625621v-15.9374379h4.2493169c-.552898.7967974-.7401779 2.2835895-.7401779 3.2269301 0 5.6893518 4.6397732 10.3191222 10.3416273 10.3191222 5.7053315 0 10.3441112-4.6297704 10.3441112-10.3191222 0-.9433406-.1341262-2.4077787-.8201569-3.2269301h4.2508072zm-13.7747615-19.2334171c3.6114723 0 6.5398945 2.9209281 6.5398945 6.5229093 0 3.6029747-2.9284222 6.5239027-6.5398945 6.5239027-3.6089885 0-6.5374107-2.920928-6.5374107-6.5239027 0-3.6019812 2.9284222-6.5229093 6.5374107-6.5229093zm7.3992958-5.203524c0-.5866694.4763964-1.0630589 1.0625776-1.0630589h3.1872361c.5856844 0 1.0630744.4763895 1.0630744 1.0630589v3.1871895c0 .5866694-.47739 1.0625621-1.0630744 1.0625621h-3.1872361c-.5861812 0-1.0625776-.4758927-1.0625776-1.0625621zm5.5205353-5.3128105h-25.9171573c-2.2324562 0-4.0406762 1.805213-4.0406762 4.0321723v25.9351587c0 2.227456 1.80822 4.032669 4.0406762 4.032669h25.9171573c2.2324562 0 4.0421665-1.805213 4.0421665-4.032669v-25.9351587c0-2.2269593-1.8097103-4.0321723-4.0421665-4.0321723z"/></g></svg>