<svg height="116" viewBox="0 0 523 116" width="523" xmlns="http://www.w3.org/2000/svg"><path d="m257.365458 169.736022c-.472776-.293034-.673234-.892743-.458878-1.428634l.458878-1.108022v-36.303997h521.634542v41.940615h-521.634542zm56.960094-112.736022h385.729757v41.9406151h-385.729757zm-56.960094 112.736022c.056558.035056.117014.065722.181122.091366.16.08.28.08.44.08.44 0 .84-.28 1.08-.68l10.36-25.16 10.28 25.16c.24.56.92.84 1.48.6.6-.24.88-.92.64-1.52l-11.36-27.72c-.16-.4-.56-.68-1.04-.68-.44 0-.88.28-1.04.68l-11.021122 26.611978zm91.881122-74.8286342c.6 0 1.16-.52 1.16-1.16s-.56-1.12-1.16-1.12h-15.2c-.64 0-1.16.48-1.16 1.12s.52 1.16 1.16 1.16zm-15.2-3.48c.64 0 1.12-.48 1.12-1.12v-24.24c0-.64-.48-1.16-1.12-1.16s-1.16.52-1.16 1.16v24.24c0 .64.52 1.12 1.16 1.12zm32.88 3.6c3.76 0 6.64-1.28 8.56-3.8 1.04-1.28 1.8-2.92 2.28-4.76.44-1.88.68-4.08.68-6.56 0-5.12-.88-8.8-2.68-11.28-1-1.28-2.24-2.28-3.76-2.88-1.4-.68-3.12-.96-5.08-.96s-3.64.24-5.04.8c-1.52.6-2.76 1.48-3.76 2.72-1 1.2-1.68 2.8-2.12 4.76-.44 1.92-.68 4.12-.68 6.84 0 5.36 1 9.16 3.04 11.6 1.88 2.36 4.68 3.52 8.56 3.52zm0-27.92c3.28 0 5.56.96 7.04 2.96 1.48 2.08 2.2 5.28 2.2 9.84 0 4.4-.84 7.72-2.4 9.84-1.52 2-3.76 2.96-6.84 2.96-3.16 0-5.44-.84-6.88-2.64-1.6-2.08-2.44-5.36-2.44-10.16 0-4.84.76-8.16 2.28-10.16 1.4-1.8 3.64-2.64 7.04-2.64zm16.4-.6 11.32 27.68c.2.44.6.72 1.04.72.52 0 .92-.28 1.08-.72l11.4-27.68c.28-.6 0-1.28-.6-1.52-.12-.04-.28-.08-.4-.08-.48 0-.88.28-1.08.72l-10.4 25.12-10.24-25.08c-.24-.64-.92-.88-1.48-.68-.6.24-.88.92-.64 1.52zm31.2 7.76c.64 0 1.16-.52 1.16-1.16v-5.92h15.56c.64 0 1.12-.52 1.12-1.16s-.48-1.12-1.12-1.12h-16.72c-.64 0-1.12.48-1.12 1.12v7.08c0 .64.48 1.16 1.12 1.16zm16.72 20.6c.64 0 1.12-.48 1.12-1.12s-.48-1.16-1.12-1.16h-15.56v-13.56h11.52c.64 0 1.16-.52 1.16-1.12 0-.64-.52-1.16-1.16-1.16h-12.68c-.64 0-1.12.52-1.12 1.16v15.84c0 .64.48 1.12 1.12 1.12zm16.68.04c.6 0 1.12-.48 1.12-1.16v-27.68c0-.68-.52-1.16-1.12-1.16-.64 0-1.16.48-1.16 1.16v27.68c0 .68.52 1.16 1.16 1.16zm24.8-22.04v-.04c0-.36-.12-2.16-1.12-4-1.04-1.84-3.2-4.04-7.64-4.04-1.92 0-3.6.4-4.88 1.04-1.16.64-2.08 1.48-2.72 2.56-.52.84-.8 1.76-1 2.76-.12.8-.12 1.44-.12 1.72 0 .6 0 2.32.88 4.04.48 1.04 1.2 1.88 2.12 2.56 1.04.8 2.36 1.28 3.96 1.44.04.04.12.04.16.04.56 0 1.04-.44 1.12-1 .08-.6-.36-1.2-.96-1.28-4.12-.52-4.96-3.44-4.96-5.8 0-2.6 1.12-5.8 6.4-5.8 2.64 0 4.56 1 5.6 2.84.84 1.44.84 2.96.88 3h-.04.04c0 .64.52 1.12 1.16 1.12.6 0 1.12-.52 1.12-1.16zm-.76 10.32c-.44-1.04-1.12-1.92-1.96-2.56-.96-.84-2.2-1.4-3.6-1.64-.68-.12-1.24.24-1.36.88-.16.64.24 1.24.88 1.36 3 .56 4.48 2.6 4.48 6 0 3.68-2.08 5.52-6.4 5.52-2.72 0-4.56-.88-5.64-2.72-.8-1.36-.8-2.76-.8-2.8 0-.64-.56-1.2-1.16-1.2-.64 0-1.16.56-1.16 1.2 0 .08.04 2 1.12 3.92 1 1.76 3.16 3.88 7.64 3.88 1.92 0 3.6-.36 4.84-.96 1.16-.6 2.12-1.36 2.8-2.44 1.08-1.8 1.08-3.68 1.08-4.4 0-.64 0-2.32-.76-4.04zm16.92 11.72c.6 0 1.12-.48 1.12-1.16v-27.68c0-.68-.52-1.16-1.12-1.16-.64 0-1.16.48-1.16 1.16v27.68c0 .68.52 1.16 1.16 1.16zm28.52 0c.12 0 .24-.04.36-.04.48-.16.8-.6.8-1.12v-27.68c0-.64-.52-1.16-1.16-1.16-.6 0-1.12.52-1.12 1.16v24l-6-8.72c-.32-.56-1.08-.68-1.56-.28-.52.32-.64 1.04-.32 1.56l8.08 11.76c.2.36.56.52.92.52zm-18.96 0c.64 0 1.12-.52 1.12-1.16v-24l6.08 8.8c.36.56 1.08.68 1.6.32.48-.36.6-1.08.28-1.6l-8.16-11.84c-.24-.44-.8-.6-1.28-.48-.48.16-.8.6-.8 1.12v27.68c0 .64.52 1.16 1.16 1.16zm55.599999-27.72c.64 0 1.16-.52 1.16-1.12 0-.64-.52-1.16-1.16-1.16h-18.96c-.64 0-1.16.52-1.16 1.16 0 .6.52 1.12 1.16 1.12zm-9.52 27.72c.64 0 1.16-.52 1.16-1.16v-23.72c0-.6-.52-1.12-1.16-1.12-.68 0-1.16.52-1.16 1.12v23.72c0 .64.48 1.16 1.16 1.16zm35.68 0c.6 0 1.12-.52 1.12-1.16v-13.8c0-.64-.52-1.16-1.12-1.16h-16.72v-12.72c0-.64-.52-1.16-1.16-1.16-.6 0-1.12.52-1.12 1.16v13.88c0 .64.52 1.16 1.12 1.16h16.72v12.64c0 .64.52 1.16 1.16 1.16zm0-18.52c.6 0 1.12-.52 1.12-1.12v-9.2c0-.64-.52-1.16-1.12-1.16-.64 0-1.16.52-1.16 1.16v9.2c0 .6.52 1.12 1.16 1.12zm-17.88 18.52c.64 0 1.16-.52 1.16-1.16v-9.2c0-.6-.52-1.12-1.16-1.12-.6 0-1.12.52-1.12 1.12v9.2c0 .64.52 1.16 1.12 1.16zm26.52-20.64c.64 0 1.16-.52 1.16-1.16v-5.92h15.56c.64 0 1.12-.52 1.12-1.16s-.48-1.12-1.12-1.12h-16.72c-.64 0-1.12.48-1.12 1.12v7.08c0 .64.48 1.16 1.12 1.16zm16.72 20.6c.64 0 1.12-.48 1.12-1.12s-.48-1.16-1.12-1.16h-15.56v-13.56h11.52c.64 0 1.16-.52 1.16-1.12 0-.64-.52-1.16-1.16-1.16h-12.68c-.64 0-1.12.52-1.12 1.16v15.84c0 .64.48 1.12 1.12 1.12zm40.52-1.56-11.36-27.72c-.16-.4-.56-.68-1.04-.68-.44 0-.88.28-1.04.68l-11.48 27.72c-.24.6.04 1.28.64 1.52.16.08.28.08.44.08.44 0 .84-.28 1.08-.68l10.36-25.16 10.28 25.16c.24.56.92.84 1.48.6.6-.24.88-.92.64-1.52zm-8.36-6.48c.64 0 1.16-.52 1.16-1.16s-.52-1.16-1.16-1.16h-8.16c-.64 0-1.16.52-1.16 1.16s.52 1.16 1.16 1.16zm13.08 8.08c.6 0 1.12-.48 1.12-1.16v-27.68c0-.68-.52-1.16-1.12-1.16-.64 0-1.16.48-1.16 1.16v27.68c0 .68.52 1.16 1.16 1.16zm30.68-1.92-8.56-9.28c-.2-.2-.52-.36-.8-.36h-10.2v-16.12h8.6s.92 0 2.16.28c1.08.28 2.6.84 3.84 2.04 1.36 1.36 2.04 3.32 2.04 5.72 0 2.96-.8 5.16-2.48 6.56-.44.4-.56 1.16-.16 1.64.44.44 1.12.52 1.64.12 1-.88 1.8-1.92 2.36-3.16.64-1.44.96-3.2.96-5.16 0-3.08-.92-5.52-2.76-7.32-3.04-3-7.32-3.04-7.6-3.04h-9.76c-.64 0-1.16.52-1.16 1.16v27.72c0 .6.52 1.12 1.16 1.12.6 0 1.16-.52 1.16-1.12v-8.12h9.64l8.24 8.84c.2.28.52.4.8.4.32 0 .56-.08.8-.32.48-.4.48-1.16.08-1.6zm5.68 2.36c.68 0 1.2-.52 1.2-1.2v-2c0-.68-.52-1.2-1.2-1.2s-1.2.52-1.2 1.2v2c0 .68.52 1.2 1.2 1.2zm-413.699999 66.4800002c.64 0 1.16-.52 1.16-1.16s-.52-1.16-1.16-1.16h-8.16c-.64 0-1.16.52-1.16 1.16s.52 1.16 1.16 1.16zm33.04 8.08c.12 0 .24-.04.36-.04.48-.16.8-.6.8-1.12v-27.68c0-.64-.52-1.16-1.16-1.16-.6 0-1.12.52-1.12 1.16v24l-6-8.72c-.32-.56-1.08-.68-1.56-.28-.52.32-.64 1.04-.32 1.56l8.08 11.76c.2.36.56.52.92.52zm-18.96 0c.64 0 1.12-.52 1.12-1.16v-24l6.08 8.8c.36.56 1.08.68 1.6.32.48-.36.6-1.08.28-1.6l-8.16-11.84c-.24-.44-.8-.6-1.28-.48-.48.16-.8.6-.8 1.12v27.68c0 .64.52 1.16 1.16 1.16zm36.08 0c.12 0 2.92-.04 5.76-1.92 1.68-1.16 2.96-2.64 3.92-4.56 1.16-2.32 1.72-5.2 1.72-8.52 0-3.36-.64-6.2-1.84-8.52-1.04-1.92-2.48-3.48-4.24-4.6-3-1.84-6.04-1.88-6.16-1.88h-7.88c-.64 0-1.12.52-1.12 1.16v27.68c0 .64.48 1.16 1.12 1.16zm-7.56-2.28v-25.44h6.72c.04 0 2.56.04 5 1.64 3.28 2.08 4.96 5.84 4.96 11.08 0 5.32-1.56 9-4.56 11.12-2.2 1.56-4.52 1.6-4.56 1.6zm35.28 2.28c.6 0 1.12-.48 1.12-1.16v-27.68c0-.68-.52-1.16-1.12-1.16-.64 0-1.16.48-1.16 1.16v27.68c0 .68.52 1.16 1.16 1.16zm27.52-27.72c.64 0 1.16-.52 1.16-1.12 0-.64-.52-1.16-1.16-1.16h-18.96c-.64 0-1.16.52-1.16 1.16 0 .6.52 1.12 1.16 1.12zm-9.52 27.72c.64 0 1.16-.52 1.16-1.16v-23.72c0-.6-.52-1.12-1.16-1.12-.68 0-1.16.52-1.16 1.12v23.72c0 .64.48 1.16 1.16 1.16zm43.32-22.04v-.04c0-.36-.12-2.16-1.12-4-1.04-1.84-3.2-4.04-7.64-4.04-1.92 0-3.6.4-4.88 1.04-1.16.64-2.08 1.48-2.72 2.56-.52.84-.8 1.76-1 2.76-.12.8-.12 1.44-.12 1.72 0 .6 0 2.32.88 4.04.48 1.04 1.2 1.88 2.12 2.56 1.04.8 2.36 1.28 3.96 1.44.04.04.12.04.16.04.56 0 1.04-.44 1.12-1 .08-.6-.36-1.2-.96-1.28-4.12-.52-4.96-3.44-4.96-5.8 0-2.6 1.12-5.8 6.4-5.8 2.64 0 4.56 1 5.6 2.84.84 1.44.84 2.96.88 3h-.04.04c0 .64.52 1.12 1.16 1.12.6 0 1.12-.52 1.12-1.16zm-.76 10.32c-.44-1.04-1.12-1.92-1.96-2.56-.96-.84-2.2-1.4-3.6-1.64-.68-.12-1.24.24-1.36.88-.16.64.24 1.24.88 1.36 3 .56 4.48 2.6 4.48 6 0 3.68-2.08 5.52-6.4 5.52-2.72 0-4.56-.88-5.64-2.72-.8-1.36-.8-2.76-.8-2.8 0-.64-.56-1.2-1.16-1.2-.64 0-1.16.56-1.16 1.2 0 .08.04 2 1.12 3.92 1 1.76 3.16 3.88 7.64 3.88 1.92 0 3.6-.36 4.84-.96 1.16-.6 2.12-1.36 2.8-2.44 1.08-1.8 1.08-3.68 1.08-4.4 0-.64 0-2.32-.76-4.04zm30.56 11.72c.64 0 1.16-.48 1.16-1.12v-27.76c0-.48-.32-.96-.84-1.08-.48-.16-1 .04-1.28.48l-10.48 16.92-10.36-16.92c-.28-.44-.8-.64-1.28-.48-.52.12-.84.6-.84 1.08v27.76c0 .64.52 1.12 1.16 1.12s1.12-.48 1.12-1.12v-23.72l9.24 15.08c.2.32.56.52.96.52s.76-.2 1-.52l9.32-15.08v23.72c0 .64.48 1.12 1.12 1.12zm8 0c.6 0 1.12-.48 1.12-1.16v-27.68c0-.68-.52-1.16-1.12-1.16-.64 0-1.16.48-1.16 1.16v27.68c0 .68.52 1.16 1.16 1.16zm23.76 0c.6 0 1.16-.52 1.16-1.16s-.56-1.12-1.16-1.12h-15.2c-.64 0-1.16.48-1.16 1.12s.52 1.16 1.16 1.16zm-15.2-3.48c.64 0 1.12-.48 1.12-1.12v-24.24c0-.64-.48-1.16-1.12-1.16s-1.16.52-1.16 1.16v24.24c0 .64.52 1.12 1.16 1.12zm37.72 3.48c.6 0 1.16-.52 1.16-1.16s-.56-1.12-1.16-1.12h-15.2c-.64 0-1.16.48-1.16 1.12s.52 1.16 1.16 1.16zm-15.2-3.48c.64 0 1.12-.48 1.12-1.12v-24.24c0-.64-.48-1.16-1.12-1.16s-1.16.52-1.16 1.16v24.24c0 .64.52 1.12 1.16 1.12zm38.76-18.56v-.04c0-.36-.12-2.16-1.12-4-1.04-1.84-3.2-4.04-7.64-4.04-1.92 0-3.6.4-4.88 1.04-1.16.64-2.08 1.48-2.72 2.56-.52.84-.8 1.76-1 2.76-.12.8-.12 1.44-.12 1.72 0 .6 0 2.32.88 4.04.48 1.04 1.2 1.88 2.12 2.56 1.04.8 2.36 1.28 3.96 1.44.04.04.12.04.16.04.56 0 1.04-.44 1.12-1 .08-.6-.36-1.2-.96-1.28-4.12-.52-4.96-3.44-4.96-5.8 0-2.6 1.12-5.8 6.4-5.8 2.64 0 4.56 1 5.6 2.84.84 1.44.84 2.96.88 3h-.04.04c0 .64.52 1.12 1.16 1.12.6 0 1.12-.52 1.12-1.16zm-.76 10.32c-.44-1.04-1.12-1.92-1.96-2.56-.96-.84-2.2-1.4-3.6-1.64-.68-.12-1.24.24-1.36.88-.16.64.24 1.24.88 1.36 3 .56 4.48 2.6 4.48 6 0 3.68-2.08 5.52-6.4 5.52-2.72 0-4.56-.88-5.64-2.72-.8-1.36-.8-2.76-.8-2.8 0-.64-.56-1.2-1.16-1.2-.64 0-1.16.56-1.16 1.2 0 .08.04 2 1.12 3.92 1 1.76 3.16 3.88 7.64 3.88 1.92 0 3.6-.36 4.84-.96 1.16-.6 2.12-1.36 2.8-2.44 1.08-1.8 1.08-3.68 1.08-4.4 0-.64 0-2.32-.76-4.04zm32.119999 11.72c.6 0 1.16-.52 1.16-1.16s-.56-1.12-1.16-1.12h-15.2c-.64 0-1.16.48-1.16 1.12s.52 1.16 1.16 1.16zm-15.2-3.48c.64 0 1.12-.48 1.12-1.12v-24.24c0-.64-.48-1.16-1.12-1.16s-1.16.52-1.16 1.16v24.24c0 .64.52 1.12 1.16 1.12zm22.52 3.48c.6 0 1.12-.48 1.12-1.16v-27.68c0-.68-.52-1.16-1.12-1.16-.64 0-1.16.48-1.16 1.16v27.68c0 .68.52 1.16 1.16 1.16zm27.76-1.84-11.8-15.2 9.56-11.04c.44-.48.36-1.2-.12-1.64s-1.2-.36-1.64.16l-15.2 17.6c-.16.2-.28.48-.28.72v10.12c0 .6.52 1.12 1.16 1.12s1.12-.52 1.12-1.12v-9.68l3.92-4.48 11.48 14.88c.2.28.52.4.88.4.24 0 .48-.04.68-.2.52-.4.6-1.12.24-1.64zm-18.32-14.72c.64 0 1.12-.48 1.12-1.12v-11.16c0-.6-.48-1.16-1.12-1.16s-1.16.56-1.16 1.16v11.16c0 .64.52 1.12 1.16 1.12zm25.16-4.08c.64 0 1.16-.52 1.16-1.16v-5.92h15.56c.64 0 1.12-.52 1.12-1.16s-.48-1.12-1.12-1.12h-16.72c-.64 0-1.12.48-1.12 1.12v7.08c0 .64.48 1.16 1.12 1.16zm16.72 20.6c.64 0 1.12-.48 1.12-1.12s-.48-1.16-1.12-1.16h-15.56v-13.56h11.52c.64 0 1.16-.52 1.16-1.12 0-.64-.52-1.16-1.16-1.16h-12.68c-.64 0-1.12.52-1.12 1.16v15.84c0 .64.48 1.12 1.12 1.12zm37.08-18.56c.64 0 1.12-.48 1.12-1.12 0 0 0 0 0-.04 0-.32-.04-4.36-2.96-7.36-2-2-4.84-3.04-8.4-3.04-2.64 0-4.84.56-6.56 1.68-1.48 1.04-2.68 2.44-3.52 4.28-1.36 3.12-1.36 6.76-1.36 9.2 0 2.28 0 6.04 1.4 9.2.88 1.84 2.04 3.24 3.52 4.28 1.72 1.12 3.92 1.68 6.52 1.68 5.88 0 8.64-2.88 9.96-5.28 1.4-2.6 1.4-5.16 1.4-5.28 0-.64-.48-1.12-1.12-1.12s-1.2.48-1.2 1.12c0 .04 0 2.08-1.12 4.16-1.44 2.72-4.12 4.08-7.92 4.08-3.96 0-6.56-1.48-7.92-4.56-1.2-2.76-1.2-6.16-1.2-8.28 0-6.24.68-12.84 9.12-12.84 2.92 0 5.16.76 6.72 2.36.96.92 1.68 2.2 2.04 3.72.28 1.16.28 2 .28 2 0 .68.56 1.16 1.2 1.16zm18.44 18.72c3.76 0 6.64-1.28 8.56-3.8 1.04-1.28 1.8-2.92 2.28-4.76.44-1.88.68-4.08.68-6.56 0-5.12-.88-8.8-2.68-11.28-1-1.28-2.24-2.28-3.76-2.88-1.4-.68-3.12-.96-5.08-.96s-3.64.24-5.04.8c-1.52.6-2.76 1.48-3.76 2.72-1 1.2-1.68 2.8-2.12 4.76-.44 1.92-.68 4.12-.68 6.84 0 5.36 1 9.16 3.04 11.6 1.88 2.36 4.68 3.52 8.56 3.52zm0-27.92c3.28 0 5.56.96 7.04 2.96 1.48 2.08 2.2 5.28 2.2 9.84 0 4.4-.84 7.72-2.4 9.84-1.52 2-3.76 2.96-6.84 2.96-3.16 0-5.44-.84-6.88-2.64-1.6-2.08-2.44-5.36-2.44-10.16 0-4.84.76-8.16 2.28-10.16 1.4-1.8 3.64-2.64 7.04-2.64zm28.64 11.56c.64 0 1.2-.48 1.2-1.12s-.56-1.2-1.2-1.2h-10.16v-9.2h15.56c.6 0 1.16-.48 1.16-1.12s-.56-1.12-1.16-1.12h-16.72c-.6 0-1.16.48-1.16 1.12v11.52c0 .64.56 1.12 1.16 1.12zm-11.32 16.24c.64 0 1.16-.56 1.16-1.16v-11.76c0-.6-.52-1.12-1.16-1.12-.6 0-1.16.52-1.16 1.12v11.76c0 .6.56 1.16 1.16 1.16zm33.08-16.24c.64 0 1.2-.48 1.2-1.12s-.56-1.2-1.2-1.2h-10.16v-9.2h15.56c.6 0 1.16-.48 1.16-1.12s-.56-1.12-1.16-1.12h-16.72c-.6 0-1.16.48-1.16 1.12v11.52c0 .64.56 1.12 1.16 1.12zm-11.32 16.24c.64 0 1.16-.56 1.16-1.16v-11.76c0-.6-.52-1.12-1.16-1.12-.6 0-1.16.52-1.16 1.12v11.76c0 .6.56 1.16 1.16 1.16zm22.72-20.64c.64 0 1.16-.52 1.16-1.16v-5.92h15.56c.64 0 1.12-.52 1.12-1.16s-.48-1.12-1.12-1.12h-16.72c-.64 0-1.12.48-1.12 1.12v7.08c0 .64.48 1.16 1.12 1.16zm16.72 20.6c.64 0 1.12-.48 1.12-1.12s-.48-1.16-1.12-1.16h-15.56v-13.56h11.52c.64 0 1.16-.52 1.16-1.12 0-.64-.52-1.16-1.16-1.16h-12.68c-.64 0-1.12.52-1.12 1.16v15.84c0 .64.48 1.12 1.12 1.12zm7.4-20.6c.64 0 1.16-.52 1.16-1.16v-5.92h15.56c.64 0 1.12-.52 1.12-1.16s-.48-1.12-1.12-1.12h-16.72c-.64 0-1.12.48-1.12 1.12v7.08c0 .64.48 1.16 1.12 1.16zm16.72 20.6c.64 0 1.12-.48 1.12-1.12s-.48-1.16-1.12-1.16h-15.56v-13.56h11.52c.64 0 1.16-.52 1.16-1.12 0-.64-.52-1.16-1.16-1.16h-12.68c-.64 0-1.12.52-1.12 1.16v15.84c0 .64.48 1.12 1.12 1.12zm8.84-1.16c0-.68-.56-1.2-1.2-1.2-.68 0-1.2.52-1.2 1.2s.52 1.2 1.2 1.2c.64 0 1.2-.52 1.2-1.2z" fill="#fff" fill-rule="evenodd" transform="translate(-256 -57)"/></svg>