<svg height="27" viewBox="0 0 147 27" width="147" xmlns="http://www.w3.org/2000/svg"><path d="m0 0h147v27h-147zm37.393 20.054c1.692 0 2.988-.576 3.852-1.71.468-.576.81-1.314 1.026-2.142.198-.846.306-1.836.306-2.952 0-2.304-.396-3.96-1.206-5.076-.45-.576-1.008-1.026-1.692-1.296-.63-.306-1.404-.432-2.286-.432s-1.638.108-2.268.36c-.684.27-1.242.666-1.692 1.224-.45.54-.756 1.26-.954 2.142-.198.864-.306 1.854-.306 3.078 0 2.412.45 4.122 1.368 5.22.846 1.062 2.106 1.584 3.852 1.584zm0-12.564c1.476 0 2.502.432 3.168 1.332.666.936.99 2.376.99 4.428 0 1.98-.378 3.474-1.08 4.428-.684.9-1.692 1.332-3.078 1.332-1.422 0-2.448-.378-3.096-1.188-.72-.936-1.098-2.412-1.098-4.572 0-2.178.342-3.672 1.026-4.572.63-.81 1.638-1.188 3.168-1.188zm12.266 12.564c.99 0 1.854-.252 2.574-.756.558-.378.99-.936 1.314-1.62.54-1.152.54-2.268.54-2.322v-8.334c0-.306-.234-.522-.522-.522s-.504.216-.504.522v8.334c0 .018-.018.936-.432 1.872-.558 1.188-1.584 1.782-2.97 1.782-1.404 0-2.412-.576-2.952-1.746-.432-.918-.468-1.854-.468-1.89v-8.352c0-.306-.216-.522-.486-.522-.306 0-.522.216-.522.522v8.352c0 .09.018 2.142 1.35 3.528.756.756 1.818 1.152 3.078 1.152zm17.198-.918-3.852-4.176c-.09-.09-.234-.162-.36-.162h-4.59v-7.254h3.87s.414 0 .972.126c.486.126 1.17.378 1.728.918.612.612.918 1.494.918 2.574 0 1.332-.36 2.322-1.116 2.952-.198.18-.252.522-.072.738.198.198.504.234.738.054.45-.396.81-.864 1.062-1.422.288-.648.432-1.44.432-2.322 0-1.386-.414-2.484-1.242-3.294-1.368-1.35-3.294-1.368-3.42-1.368h-4.392c-.288 0-.522.234-.522.522v12.474c0 .27.234.504.522.504.27 0 .522-.234.522-.504v-3.654h4.338l3.708 3.978c.09.126.234.18.36.18.144 0 .252-.036.36-.144.216-.18.216-.522.036-.72zm18.124.864c.288 0 .522-.216.522-.504v-12.492c0-.216-.144-.432-.378-.486-.216-.072-.45.018-.576.216l-4.716 7.614-4.662-7.614c-.126-.198-.36-.288-.576-.216-.234.054-.378.27-.378.486v12.492c0 .288.234.504.522.504s.504-.216.504-.504v-10.674l4.158 6.786c.09.144.252.234.432.234s.342-.09.45-.234l4.194-6.786v10.674c0 .288.216.504.504.504zm4.148-9.288c.288 0 .522-.234.522-.522v-2.664h7.002c.288 0 .504-.234.504-.522s-.216-.504-.504-.504h-7.524c-.288 0-.504.216-.504.504v3.186c0 .288.216.522.504.522zm7.524 9.27c.288 0 .504-.216.504-.504s-.216-.522-.504-.522h-7.002v-6.102h5.184c.288 0 .522-.234.522-.504 0-.288-.234-.522-.522-.522h-5.706c-.288 0-.504.234-.504.522v7.128c0 .288.216.504.504.504zm11.996.018c.054 0 .108-.018.162-.018.216-.072.36-.27.36-.504v-12.456c0-.288-.234-.522-.522-.522-.27 0-.504.234-.504.522v10.8l-2.7-3.924c-.144-.252-.486-.306-.702-.126-.234.144-.288.468-.144.702l3.636 5.292c.09.162.252.234.414.234zm-8.532 0c.288 0 .504-.234.504-.522v-10.8l2.736 3.96c.162.252.486.306.72.144.216-.162.27-.486.126-.72l-3.672-5.328c-.108-.198-.36-.27-.576-.216-.216.072-.36.27-.36.504v12.456c0 .288.234.522.522.522zm16.352.054c.99 0 1.854-.252 2.574-.756.558-.378.99-.936 1.314-1.62.54-1.152.54-2.268.54-2.322v-8.334c0-.306-.234-.522-.522-.522s-.504.216-.504.522v8.334c0 .018-.018.936-.432 1.872-.558 1.188-1.584 1.782-2.97 1.782-1.404 0-2.412-.576-2.952-1.746-.432-.918-.468-1.854-.468-1.89v-8.352c0-.306-.216-.522-.486-.522-.306 0-.522.216-.522.522v8.352c0 .09.018 2.142 1.35 3.528.756.756 1.818 1.152 3.078 1.152z" fill-rule="evenodd"/></svg>