<svg height="27" viewBox="0 0 147 27" width="147" xmlns="http://www.w3.org/2000/svg"><path d="m197 0h147v27h-147zm46.697 7.796c-1.296-1.278-3.096-1.296-3.204-1.296h-4.626c-.288 0-.504.234-.504.504v12.492c0 .27.216.504.504.504s.522-.234.522-.504v-3.654h1.764c.288 0 .522-.234.522-.504 0-.306-.234-.54-.522-.54h-1.764v-7.254h4.104c.018 0 .396 0 .9.108.648.18 1.17.468 1.584.864.612.63.918 1.512.918 2.628 0 1.512-.54 2.592-1.638 3.186-.864.468-1.746.468-1.764.468h-.54c-.27 0-.504.234-.504.54 0 .27.234.504.504.504h.54c.054 0 1.116 0 2.214-.594 1.008-.522 2.232-1.692 2.232-4.104 0-1.404-.414-2.538-1.242-3.348zm13.742 11.34-3.852-4.176c-.09-.09-.234-.162-.36-.162h-4.59v-7.254h3.87s.414 0 .972.126c.486.126 1.17.378 1.728.918.612.612.918 1.494.918 2.574 0 1.332-.36 2.322-1.116 2.952-.198.18-.252.522-.072.738.198.198.504.234.738.054.45-.396.81-.864 1.062-1.422.288-.648.432-1.44.432-2.322 0-1.386-.414-2.484-1.242-3.294-1.368-1.35-3.294-1.368-3.42-1.368h-4.392c-.288 0-.522.234-.522.522v12.474c0 .27.234.504.522.504.27 0 .522-.234.522-.504v-3.654h4.338l3.708 3.978c.09.126.234.18.36.18.144 0 .252-.036.36-.144.216-.18.216-.522.036-.72zm2.654.864c.27 0 .504-.216.504-.522v-12.456c0-.306-.234-.522-.504-.522-.288 0-.522.216-.522.522v12.456c0 .306.234.522.522.522zm13.148-8.37c.288 0 .504-.216.504-.504 0 0 0 0 0-.018 0-.144-.018-1.962-1.332-3.312-.9-.9-2.178-1.368-3.78-1.368-1.188 0-2.178.252-2.952.756-.666.468-1.206 1.098-1.584 1.926-.612 1.404-.612 3.042-.612 4.14 0 1.026 0 2.718.63 4.14.396.828.918 1.458 1.584 1.926.774.504 1.764.756 2.934.756 2.646 0 3.888-1.296 4.482-2.376.63-1.17.63-2.322.63-2.376 0-.288-.216-.504-.504-.504s-.54.216-.54.504c0 .018 0 .936-.504 1.872-.648 1.224-1.854 1.836-3.564 1.836-1.782 0-2.952-.666-3.564-2.052-.54-1.242-.54-2.772-.54-3.726 0-2.808.306-5.778 4.104-5.778 1.314 0 2.322.342 3.024 1.062.432.414.756.99.918 1.674.126.522.126.9.126.9 0 .306.252.522.54.522zm3.752 8.37c.27 0 .504-.216.504-.522v-12.456c0-.306-.234-.522-.504-.522-.288 0-.522.216-.522.522v12.456c0 .306.234.522.522.522zm12.95 0c.054 0 .108-.018.162-.018.216-.072.36-.27.36-.504v-12.456c0-.288-.234-.522-.522-.522-.27 0-.504.234-.504.522v10.8l-2.7-3.924c-.144-.252-.486-.306-.702-.126-.234.144-.288.468-.144.702l3.636 5.292c.09.162.252.234.414.234zm-8.532 0c.288 0 .504-.234.504-.522v-10.8l2.736 3.96c.162.252.486.306.72.144.216-.162.27-.486.126-.72l-3.672-5.328c-.108-.198-.36-.27-.576-.216-.216.072-.36.27-.36.504v12.456c0 .288.234.522.522.522zm21.698 0c.27 0 .504-.234.504-.504v-4.176c0-.288-.234-.504-.504-.504h-3.402c-.288 0-.54.216-.54.504s.252.504.54.504h2.88v3.672c0 .27.234.504.522.504zm-1.368-12.186c-.918-.918-2.16-1.368-3.762-1.368-1.188 0-2.178.27-2.952.774-.684.45-1.224 1.08-1.566 1.89-.612 1.422-.612 3.06-.612 4.14 0 1.008 0 2.7.63 4.14.342.81.882 1.44 1.584 1.908.756.504 1.746.756 2.916.756 1.782 0 2.916-.576 3.672-1.314.09-.108.144-.234.144-.378 0-.288-.234-.522-.522-.522-.126 0-.27.072-.36.162-.684.684-1.674 1.026-2.934 1.026-1.8 0-2.952-.684-3.564-2.052-.54-1.242-.54-2.808-.54-3.726 0-2.79.306-5.778 4.104-5.778 1.296 0 2.322.36 3.006 1.062.414.432.756 1.008.936 1.674.126.522.126.918.126.918 0 .27.234.504.504.504.288 0 .522-.234.522-.486 0-.018 0-.018 0-.018 0-.18-.036-1.98-1.332-3.312z" fill-rule="evenodd" transform="translate(-197)"/></svg>