<svg height="72" viewBox="0 0 64 72" width="64" xmlns="http://www.w3.org/2000/svg"><g fill="none" fill-rule="evenodd" stroke="#000" stroke-width="2" transform="translate(1 1)"><path d="m59.0655749 54.65455-25.1318834 14.5564909c-1.8159201 1.0519455-4.0529301 1.0519455-5.8688502 0l-25.13041623-14.5564909c-1.81592005-1.0519454-2.93442507-2.9949042-2.93442507-5.0987951v-29.1124911c0-2.1034002 1.11850502-4.0468497 2.93442507-5.0983045l25.13041623-14.55600024c1.8159201-1.05194541 4.0529301-1.05194541 5.8688502 0l25.1318834 14.55600024c1.8159201 1.0514548 2.9344251 2.9949043 2.9344251 5.0983045v29.1124911c0 2.1038909-1.118505 4.0468497-2.9344251 5.0987951z" fill="#fff" stroke-linecap="round"/><path d="m49.2338687 43.6280757c-5.2138547-.8672379-7.5621728-6.2725908-7.6597335-6.5018035-.0068635-.0153801-.0132368-.0307602-.0205906-.045148-.2666984-.5457447-.3274899-.9972243-.1838454-1.3405473.2843475-.6767234 1.3776146-1.0264962 2.0997592-1.2581896.2083581-.0659855.4064209-.1294903.5706561-.1949797.7103785-.283291 1.2197527-.5913887 1.5550867-.9406653.401028-.4162543.4784882-.8151441.4735856-1.0761093-.0117661-.6320715-.489764-1.1927001-1.2516192-1.4680531-.2573836-.1071644-.5505556-.1637234-.8496108-.1637234-.202475 0-.5034912.0282795-.7883289.162235-.6103666.2882524-1.1570002.4455261-1.6256833.4683481-.2495395-.0133955-.4245603-.0674738-.5373188-.1195677.0147077-.2465773.0303958-.5001005.0460839-.7635464l.0073538-.1131179c.1666865-2.670676.3740641-5.9947571-.4976081-7.9683683-.59762-1.3514623-1.4001663-2.5138984-2.3860678-3.4565483-.8265687-.7898413-1.7874672-1.429851-2.8537703-1.9026643-1.8580639-.8225861-3.5901324-.9456267-4.4573923-.9456267h-.0014708-.0955996c-.2407148.0024807-.634389.0064497-.6706679.0069458-.8652988 0-2.5978576.1235368-4.4593532.9520764-1.0623811.4738056-2.0193576 1.1138153-2.8434751 1.9031605-.9819794.9406654-1.7810939 2.1001247-2.3762627 3.4466256-.8706916 1.9716267-.6647848 5.2937233-.4980984 7.9629109l.0004903.0034729c.0176492.2862679.0362788.584939.0534377.8756721-.1279564.0590397-.3353339.1215522-.6402721.1215522-.4927056 0-1.0770888-.1582659-1.7379516-.4713249-.1946309-.0907921-.4157356-.1374284-.6608628-.1374284-.393184 0-.8084294.117087-1.1677858.3309197-.4534852.267911-.7456768.6469555-.8246077 1.0671789-.0514767.2783297-.050006.8275473.5549678 1.384703.3319022.3066093.821176.5899004 1.4526236.8414391.1647254.0654893.3622979.128498.5696755.1949797.7221446.2316934 1.8154117.5814661 2.0997593 1.2586856.144625.3428269.0833432.7948027-.1838454 1.3405474-.0068636.0143878-.0142174.0292717-.0205907.0446518-.0661843.1567776-.6878268 1.5772021-1.962488 3.0750231-.7236154.8518578-1.5217494 1.5638066-2.3693992 2.1160009-1.0344366.675235-2.1541774 1.116296-3.3278463 1.3112756-.4603488.0764043-.7893094.490178-.7638162.9610068.0073538.1354439.0392204.2708878.0936386.4018665.0014707.0004961.0014707.0014884.001961.0024807.1862966.4395725.6177204.8126634 1.3202549 1.1420947.857945.4023627 2.1409406.7402282 3.8136883 1.0051625.0843238.162235.171589.5695589.2328708.8483849.0632428.2971827.1294272.6018075.223556.9257814.1024631.3507649.3672005.7704922 1.0462027.7704922.2578738 0 .5534971-.0585435.8971654-.1255213.5015302-.0997224 1.189357-.2351663 2.0458313-.2351663.4750564 0 .9682523.041675 1.4634091.1250251.9555057.1607467 1.7796232.7476702 2.7331678 1.4278665 1.3942833.9952399 2.9733925 2.1214584 5.3864242 2.1214584.0661844 0 .1318784-.0019845.1970823-.0069458.0794212.003969.1784525.0069458.2828767.0069458 2.413522 0 3.9926312-1.1267147 5.385934-2.1209622l.0029415-.0024807c.9535446-.679204 1.7761914-1.2651353 2.7312068-1.425882.4951568-.0828539.9878624-.1250251 1.4629189-.1250251.8187247 0 1.4668409.1051799 2.0463215.2192901.3784763.0744198.6711582.1106374.8966751.1106374l.0225517.0004961h.0225517c.4966277 0 .8618671-.2748569 1.0015896-.7566006.0916776-.317028.1583522-.6147069.2240462-.916851.0553988-.2614613.1475666-.6806925.2318903-.8444159 1.6727478-.2649342 2.9562336-.6023036 3.8141786-1.0046663.7000832-.3274468 1.131507-.7010338 1.3187841-1.1386218.0563793-.1314748.0897166-.2674149.0975606-.4058356.025003-.4698365-.3039576-.8846025-.7647967-.9610067z"/></g></svg>