<svg height="27" viewBox="0 0 147 27" width="147" xmlns="http://www.w3.org/2000/svg"><path d="m649-1h147v27h-147zm9.866 9.082v-.018c0-.162-.054-.972-.504-1.8-.468-.828-1.44-1.818-3.438-1.818-.864 0-1.62.18-2.196.468-.522.288-.936.666-1.224 1.152-.234.378-.36.792-.45 1.242-.054.36-.054.648-.054.774 0 .27 0 1.044.396 1.818.216.468.54.846.954 1.152.468.36 1.062.576 1.782.648.018.018.054.018.072.018.252 0 .468-.198.504-.45.036-.27-.162-.54-.432-.576-1.854-.234-2.232-1.548-2.232-2.61 0-1.17.504-2.61 2.88-2.61 1.188 0 2.052.45 2.52 1.278.378.648.378 1.332.396 1.35h-.018.018c0 .288.234.504.522.504.27 0 .504-.234.504-.522zm-.342 4.644c-.198-.468-.504-.864-.882-1.152-.432-.378-.99-.63-1.62-.738-.306-.054-.558.108-.612.396-.072.288.108.558.396.612 1.35.252 2.016 1.17 2.016 2.7 0 1.656-.936 2.484-2.88 2.484-1.224 0-2.052-.396-2.538-1.224-.36-.612-.36-1.242-.36-1.26 0-.288-.252-.54-.522-.54-.288 0-.522.252-.522.54 0 .036.018.9.504 1.764.45.792 1.422 1.746 3.438 1.746.864 0 1.62-.162 2.178-.432.522-.27.954-.612 1.26-1.098.486-.81.486-1.656.486-1.98 0-.288 0-1.044-.342-1.818zm7.478 5.328c.99 0 1.854-.252 2.574-.756.558-.378.99-.936 1.314-1.62.54-1.152.54-2.268.54-2.322v-8.334c0-.306-.234-.522-.522-.522s-.504.216-.504.522v8.334c0 .018-.018.936-.432 1.872-.558 1.188-1.584 1.782-2.97 1.782-1.404 0-2.412-.576-2.952-1.746-.432-.918-.468-1.854-.468-1.89v-8.352c0-.306-.216-.522-.486-.522-.306 0-.522.216-.522.522v8.352c0 .09.018 2.142 1.35 3.528.756.756 1.818 1.152 3.078 1.152zm16.946-.054c.27 0 .504-.234.504-.504v-4.176c0-.288-.234-.504-.504-.504h-3.402c-.288 0-.54.216-.54.504s.252.504.54.504h2.88v3.672c0 .27.234.504.522.504zm-1.368-12.186c-.918-.918-2.16-1.368-3.762-1.368-1.188 0-2.178.27-2.952.774-.684.45-1.224 1.08-1.566 1.89-.612 1.422-.612 3.06-.612 4.14 0 1.008 0 2.7.63 4.14.342.81.882 1.44 1.584 1.908.756.504 1.746.756 2.916.756 1.782 0 2.916-.576 3.672-1.314.09-.108.144-.234.144-.378 0-.288-.234-.522-.522-.522-.126 0-.27.072-.36.162-.684.684-1.674 1.026-2.934 1.026-1.8 0-2.952-.684-3.564-2.052-.54-1.242-.54-2.808-.54-3.726 0-2.79.306-5.778 4.104-5.778 1.296 0 2.322.36 3.006 1.062.414.432.756 1.008.936 1.674.126.522.126.918.126.918 0 .27.234.504.504.504.288 0 .522-.234.522-.486 0-.018 0-.018 0-.018 0-.18-.036-1.98-1.332-3.312zm14.624 12.186c.27 0 .504-.234.504-.504v-4.176c0-.288-.234-.504-.504-.504h-3.402c-.288 0-.54.216-.54.504s.252.504.54.504h2.88v3.672c0 .27.234.504.522.504zm-1.368-12.186c-.918-.918-2.16-1.368-3.762-1.368-1.188 0-2.178.27-2.952.774-.684.45-1.224 1.08-1.566 1.89-.612 1.422-.612 3.06-.612 4.14 0 1.008 0 2.7.63 4.14.342.81.882 1.44 1.584 1.908.756.504 1.746.756 2.916.756 1.782 0 2.916-.576 3.672-1.314.09-.108.144-.234.144-.378 0-.288-.234-.522-.522-.522-.126 0-.27.072-.36.162-.684.684-1.674 1.026-2.934 1.026-1.8 0-2.952-.684-3.564-2.052-.54-1.242-.54-2.808-.54-3.726 0-2.79.306-5.778 4.104-5.778 1.296 0 2.322.36 3.006 1.062.414.432.756 1.008.936 1.674.126.522.126.918.126.918 0 .27.234.504.504.504.288 0 .522-.234.522-.486 0-.018 0-.018 0-.018 0-.18-.036-1.98-1.332-3.312zm5.354 2.898c.288 0 .522-.234.522-.522v-2.664h7.002c.288 0 .504-.234.504-.522s-.216-.504-.504-.504h-7.524c-.288 0-.504.216-.504.504v3.186c0 .288.216.522.504.522zm7.524 9.27c.288 0 .504-.216.504-.504s-.216-.522-.504-.522h-7.002v-6.102h5.184c.288 0 .522-.234.522-.504 0-.288-.234-.522-.522-.522h-5.706c-.288 0-.504.234-.504.522v7.128c0 .288.216.504.504.504zm10.322-9.9v-.018c0-.162-.054-.972-.504-1.8-.468-.828-1.44-1.818-3.438-1.818-.864 0-1.62.18-2.196.468-.522.288-.936.666-1.224 1.152-.234.378-.36.792-.45 1.242-.054.36-.054.648-.054.774 0 .27 0 1.044.396 1.818.216.468.54.846.954 1.152.468.36 1.062.576 1.782.648.018.018.054.018.072.018.252 0 .468-.198.504-.45.036-.27-.162-.54-.432-.576-1.854-.234-2.232-1.548-2.232-2.61 0-1.17.504-2.61 2.88-2.61 1.188 0 2.052.45 2.52 1.278.378.648.378 1.332.396 1.35h-.018.018c0 .288.234.504.522.504.27 0 .504-.234.504-.522zm-.342 4.644c-.198-.468-.504-.864-.882-1.152-.432-.378-.99-.63-1.62-.738-.306-.054-.558.108-.612.396-.072.288.108.558.396.612 1.35.252 2.016 1.17 2.016 2.7 0 1.656-.936 2.484-2.88 2.484-1.224 0-2.052-.396-2.538-1.224-.36-.612-.36-1.242-.36-1.26 0-.288-.252-.54-.522-.54-.288 0-.522.252-.522.54 0 .036.018.9.504 1.764.45.792 1.422 1.746 3.438 1.746.864 0 1.62-.162 2.178-.432.522-.27.954-.612 1.26-1.098.486-.81.486-1.656.486-1.98 0-.288 0-1.044-.342-1.818zm11.654-7.2c.288 0 .522-.234.522-.504 0-.288-.234-.522-.522-.522h-8.532c-.288 0-.522.234-.522.522 0 .27.234.504.522.504zm-4.284 12.474c.288 0 .522-.234.522-.522v-10.674c0-.27-.234-.504-.522-.504-.306 0-.522.234-.522.504v10.674c0 .288.216.522.522.522zm21.498 0c.054 0 1.314-.018 2.592-.864.756-.522 1.332-1.188 1.764-2.052.522-1.044.774-2.34.774-3.834 0-1.512-.288-2.79-.828-3.834-.468-.864-1.116-1.566-1.908-2.07-1.35-.828-2.718-.846-2.772-.846h-3.546c-.288 0-.504.234-.504.522v12.456c0 .288.216.522.504.522zm-3.402-1.026v-11.448h3.024c.018 0 1.152.018 2.25.738 1.476.936 2.232 2.628 2.232 4.986 0 2.394-.702 4.05-2.052 5.004-.99.702-2.034.72-2.052.72zm21.338.162-3.852-4.176c-.09-.09-.234-.162-.36-.162h-4.59v-7.254h3.87s.414 0 .972.126c.486.126 1.17.378 1.728.918.612.612.918 1.494.918 2.574 0 1.332-.36 2.322-1.116 2.952-.198.18-.252.522-.072.738.198.198.504.234.738.054.45-.396.81-.864 1.062-1.422.288-.648.432-1.44.432-2.322 0-1.386-.414-2.484-1.242-3.294-1.368-1.35-3.294-1.368-3.42-1.368h-4.392c-.288 0-.522.234-.522.522v12.474c0 .27.234.504.522.504.27 0 .522-.234.522-.504v-3.654h4.338l3.708 3.978c.09.126.234.18.36.18.144 0 .252-.036.36-.144.216-.18.216-.522.036-.72zm2.654.864c.27 0 .504-.216.504-.522v-12.456c0-.306-.234-.522-.504-.522-.288 0-.522.216-.522.522v12.456c0 .306.234.522.522.522zm12.95 0c.054 0 .108-.018.162-.018.216-.072.36-.27.36-.504v-12.456c0-.288-.234-.522-.522-.522-.27 0-.504.234-.504.522v10.8l-2.7-3.924c-.144-.252-.486-.306-.702-.126-.234.144-.288.468-.144.702l3.636 5.292c.09.162.252.234.414.234zm-8.532 0c.288 0 .504-.234.504-.522v-10.8l2.736 3.96c.162.252.486.306.72.144.216-.162.27-.486.126-.72l-3.672-5.328c-.108-.198-.36-.27-.576-.216-.216.072-.36.27-.36.504v12.456c0 .288.234.522.522.522zm20.636-.828-5.31-6.84 4.302-4.968c.198-.216.162-.54-.054-.738s-.54-.162-.738.072l-6.84 7.92c-.072.09-.126.216-.126.324v4.554c0 .27.234.504.522.504s.504-.234.504-.504v-4.356l1.764-2.016 5.166 6.696c.09.126.234.18.396.18.108 0 .216-.018.306-.09.234-.18.27-.504.108-.738zm-8.244-6.624c.288 0 .504-.216.504-.504v-5.022c0-.27-.216-.522-.504-.522s-.522.252-.522.522v5.022c0 .288.234.504.522.504z" fill-rule="evenodd" transform="translate(-649 1)"/></svg>