<svg height="72" viewBox="0 0 64 72" width="64" xmlns="http://www.w3.org/2000/svg"><g fill="none" fill-rule="evenodd" stroke="#000" stroke-width="2" transform="translate(1 1)"><path d="m59.0655749 54.65455-25.1313944 14.5564909c-1.81592 1.0519455-4.0529301 1.0519455-5.8688501 0l-25.13090533-14.5564909c-1.81543098-1.0519454-2.93442507-2.9949042-2.93442507-5.0987951v-29.1124911c0-2.1034002 1.11899409-4.0468497 2.93442507-5.0983045l25.13090533-14.55600024c1.81592-1.05194541 4.0529301-1.05194541 5.8688501 0l25.1313944 14.55600024c1.8159201 1.0514548 2.9344251 2.9949043 2.9344251 5.0983045v29.1124911c0 2.1038909-1.118505 4.0468497-2.9344251 5.0987951z" fill="#fff" stroke-linecap="round"/><path d="m47.0897593 21.4992119c-1.3095973.7798991-2.7565342 1.3474896-4.3023362 1.6520854-1.231674-1.3245374-2.992739-2.1512973-4.9413067-2.1512973-3.7364188 0-6.7676324 3.0516957-6.7676324 6.8158682 0 .5345967.0584425 1.0534137.1743533 1.5526256-5.6260571-.2849907-10.6146047-2.9957496-13.9560502-7.1242894-.5824761 1.0098999-.9155979 2.1823784-.9155979 3.4304082 0 2.3636058 1.1951475 4.4503498 3.0117328 5.6730364-1.1079709-.0334721-2.1540903-.3433277-3.0682271-.8501904v.0836802c0 3.3036925 2.3338007 6.0593996 5.433197 6.6834145-.5678655.1601877-1.1659263.2395643-1.7844419.2395643-.435396 0-.8610516-.0406447-1.2735577-.1204994.8620257 2.7064553 3.3594651 4.6779598 6.3234699 4.7310369-2.3157809 1.8290091-5.2374149 2.9197202-8.4079163 2.9197202-.5464366 0-1.087029-.0315594-1.6154459-.0942 2.9966351 1.9308599 6.5562656 3.0598247 10.3774259 3.0598247 12.4550539 0 19.264083-10.3844683 19.264083-19.3922784 0-.2964668-.0068183-.5929337-.0175327-.8836624 1.3222597-.9611264 2.4711403-2.1603826 3.3760238-3.5279554-1.2126802.5422474-2.5188683.9090056-3.887395 1.0730187 1.3982349-.8425397 2.4716274-2.1785531 2.9771543-3.7699106z"/></g></svg>