<svg height="71" viewBox="0 0 64 71" width="64" xmlns="http://www.w3.org/2000/svg"><g fill="none" fill-rule="evenodd" stroke="#000" stroke-width="2" transform="translate(1 1)"><path d="m59.0655749 53.8737708-25.1313944 14.348541c-1.81592 1.0369176-4.0529301 1.0369176-5.8688501 0l-25.13090533-14.348541c-1.81543098-1.0369177-2.93442507-2.95212-2.93442507-5.0259552v-28.6965984c0-2.0733517 1.11899409-3.9890376 2.93442507-5.0254716l25.13090533-14.34805738c1.81592-1.03691763 4.0529301-1.03691763 5.8688501 0l25.1313944 14.34805738c1.8159201 1.036434 2.9344251 2.9521199 2.9344251 5.0254716v28.6965984c0 2.0738352-1.118505 3.9890375-2.9344251 5.0259552z" fill="#fff" stroke-linecap="round"/><path d="m41.4783275 41.4180321c-.433449 1.2267334-2.1585277 2.2432804-3.5329727 2.5396723-.9409961.2009848-2.1686981.3598354-6.3051094-1.3545887-5.2885625-2.1909759-8.6965857-7.5662281-8.9605295-7.9149246-.2537735-.349665-2.1372185-2.8467188-2.1372185-5.4290096 0-2.5818064 1.3119703-3.8414722 1.8408265-4.3809831.4339333-.4445879 1.1531197-.6450884 1.8408266-.6450884.2227782 0 .4232787.0101703.6034385.0208249.5288562.0213093.7932844.0527888 1.1419808.8886916.4344176 1.0475422 1.4921301 3.6298329 1.6185325 3.8942611.1273711.2644281.2542579.6247477.074098.9734441-.1690209.3598354-.3177011.5191703-.581645.8257326-.2644281.3070465-.5186859.5399951-.783114.8678666-.2431189.2852531-.5182017.5927839-.2111551 1.1216402.3070466.5186859 1.3642748 2.2432803 2.9198483 3.6288643 2.0093631 1.7885221 3.6385503 2.3604811 4.2211639 2.6036.433449.1801598.952135.1380256 1.2688676-.2009848.4019694-.4339333.8993461-1.153604 1.4068932-1.8621358.359351-.5080313.8145936-.571959 1.290661-.3917991.4867221.1690209 3.0583583 1.438857 3.5867302 1.7032851.5283719.2653968.8785213.3917992 1.0049237.6140932.1268868.222294.1268868 1.2693518-.3070466 2.4975381zm-10.4730002-25.4180321h-.0106546c-9.9228348 0-17.9946727 8.0737751-17.9946727 17.9995157 0 3.9363952 1.2698361 7.587053 3.4273953 10.550004l-2.2423118 6.6877069 6.9187183-2.2108322c2.8457502 1.883445 6.2406974 2.9736056 9.9015255 2.9736056 9.9233191 0 17.9946727-8.0747437 17.9946727-18 0-9.9262249-8.0713536-18-17.9946727-18z"/></g></svg>